<svg width="14" height="14" viewBox="0 0 14 14" fill="none" xmlns="http://www.w3.org/2000/svg">
<path d="M13 3.00001H10.3333V2.33334C10.3328 1.80309 10.1219 1.29472 9.74691 0.919769C9.37196 0.544822 8.86359 0.333922 8.33333 0.333344H5.66666C5.13641 0.333922 4.62804 0.544822 4.25309 0.919769C3.87814 1.29472 3.66724 1.80309 3.66667 2.33334V3.00001H0.999999C0.823188 3.00001 0.653618 3.07025 0.528594 3.19527C0.40357 3.3203 0.333332 3.48987 0.333332 3.66668C0.333332 3.84349 0.40357 4.01306 0.528594 4.13808C0.653618 4.26311 0.823188 4.33334 0.999999 4.33334H1.66667V10.3333C1.6677 11.2171 2.01923 12.0643 2.64412 12.6892C3.26902 13.3141 4.11626 13.6656 5 13.6667H9C9.88373 13.6656 10.731 13.3141 11.3559 12.6892C11.9808 12.0643 12.3323 11.2171 12.3333 10.3333V4.33334H13C13.1768 4.33334 13.3464 4.26311 13.4714 4.13808C13.5964 4.01306 13.6667 3.84349 13.6667 3.66668C13.6667 3.48987 13.5964 3.3203 13.4714 3.19527C13.3464 3.07025 13.1768 3.00001 13 3.00001ZM5 2.33334C5.00012 2.15657 5.07039 1.98707 5.19539 1.86207C5.32039 1.73707 5.48989 1.6668 5.66666 1.66668H8.33333C8.51011 1.6668 8.6796 1.73707 8.8046 1.86207C8.9296 1.98707 8.99988 2.15657 9 2.33334V3.00001H5V2.33334ZM11 10.3333C10.9994 10.8636 10.7885 11.372 10.4136 11.7469C10.0386 12.1219 9.53025 12.3328 9 12.3333H5C4.46974 12.3328 3.96137 12.1219 3.58642 11.7469C3.21148 11.372 3.00058 10.8636 3 10.3333V4.33334H11V10.3333ZM5.66666 11C5.75423 11.0001 5.84094 10.9828 5.92185 10.9494C6.00275 10.9159 6.07627 10.8668 6.13818 10.8049C6.2001 10.7429 6.2492 10.6694 6.28269 10.5885C6.31617 10.5076 6.33338 10.4209 6.33333 10.3333V6.33334C6.33333 6.15653 6.26309 5.98696 6.13807 5.86194C6.01305 5.73691 5.84348 5.66668 5.66666 5.66668C5.48985 5.66668 5.32028 5.73691 5.19526 5.86194C5.07024 5.98696 5 6.15653 5 6.33334V10.3333C4.99995 10.4209 5.01716 10.5076 5.05064 10.5885C5.08413 10.6694 5.13323 10.7429 5.19515 10.8049C5.25706 10.8668 5.33058 10.9159 5.41148 10.9494C5.49239 10.9829 5.5791 11.0001 5.66666 11V11ZM8.33333 11C8.42089 11.0001 8.50761 10.9828 8.58851 10.9494C8.66942 10.9159 8.74293 10.8668 8.80485 10.8049C8.86676 10.7429 8.91587 10.6694 8.94935 10.5885C8.98284 10.5076 9.00005 10.4209 9 10.3333V6.33334C9 6.15653 8.92976 5.98696 8.80474 5.86194C8.67971 5.73691 8.51014 5.66668 8.33333 5.66668C8.15652 5.66668 7.98695 5.73691 7.86193 5.86194C7.7369 5.98696 7.66666 6.15653 7.66666 6.33334V10.3333C7.66661 10.4209 7.68382 10.5076 7.71731 10.5885C7.75079 10.6694 7.7999 10.7429 7.86181 10.8049C7.92373 10.8668 7.99724 10.9159 8.07815 10.9494C8.15906 10.9829 8.24577 11.0001 8.33333 11V11Z" fill="white"/>
</svg>
