<svg width="89" height="83" viewBox="0 0 89 83" fill="none" xmlns="http://www.w3.org/2000/svg">
<path d="M53.8889 17.4444L54.4923 18.6188L55.6666 19.2222L54.4923 19.8256L53.8889 21L53.2855 19.8256L52.1111 19.2222L53.2855 18.6188L53.8889 17.4444Z" fill="#FFDE41"/>
<path d="M49.8889 14L50.266 14.734L51 15.1111L50.266 15.4882L49.8889 16.2222L49.5118 15.4882L48.7778 15.1111L49.5118 14.734L49.8889 14Z" fill="#FFDE41"/>
<g filter="url(#filter0_bdi_1_3972)">
<path fill-rule="evenodd" clip-rule="evenodd" d="M37.1111 34.3321C37.0742 34.3329 37.0371 34.3333 37 34.3333C34.2386 34.3333 32 32.0948 32 29.3333C32 27.4593 33.031 25.8261 34.5567 24.97C34.5559 24.9245 34.5556 24.879 34.5556 24.8333C34.5556 20.2616 38.2616 16.5556 42.8333 16.5556C46.7768 16.5556 50.0762 19.3131 50.9085 23.0051C53.926 23.1318 56.3333 25.6181 56.3333 28.6667C56.3333 31.7963 53.7963 34.3333 50.6667 34.3333L37.1111 34.3333V34.3321Z" fill="url(#paint0_radial_1_3972)" fill-opacity="0.77"/>
</g>
<g style="mix-blend-mode:soft-light" filter="url(#filter1_di_1_3972)">
<circle cx="37" cy="29.3333" r="5" fill="#848484"/>
</g>
<path d="M42.1257 37.1706L42.5556 34.3333H45.6667L45.1262 36.5852C45.0619 36.8533 45.2651 37.1111 45.5408 37.1111C45.8805 37.1111 46.0838 37.489 45.8966 37.7724L42.4444 43L43.5359 38.9072C43.658 38.4493 43.3128 38 42.8389 38C42.3974 38 42.0595 37.6071 42.1257 37.1706Z" fill="url(#paint1_linear_1_3972)"/>
<mask id="mask0_1_3972" style="mask-type:alpha" maskUnits="userSpaceOnUse" x="32" y="16" width="25" height="19">
<path fill-rule="evenodd" clip-rule="evenodd" d="M37.1111 34.3321C37.0742 34.3329 37.0371 34.3333 37 34.3333C34.2386 34.3333 32 32.0948 32 29.3333C32 27.4593 33.031 25.8261 34.5567 24.97C34.5559 24.9245 34.5556 24.879 34.5556 24.8333C34.5556 20.2616 38.2616 16.5556 42.8333 16.5556C46.7768 16.5556 50.0762 19.3131 50.9085 23.0051C53.926 23.1318 56.3333 25.6181 56.3333 28.6667C56.3333 31.7963 53.7963 34.3333 50.6667 34.3333C50.5171 34.3333 50.3689 34.3275 50.2222 34.3162V34.3333H37.1111V34.3321Z" fill="url(#paint2_radial_1_3972)" fill-opacity="0.77"/>
</mask>
<g mask="url(#mask0_1_3972)">
<g filter="url(#filter2_f_1_3972)">
<path d="M43.8889 30.1111C40.9493 32.2754 38.2793 33.7784 36.5555 34.3333H51.7778C49.9269 34.3333 46.0209 31.3945 43.8889 30.1111Z" fill="url(#paint3_radial_1_3972)"/>
</g>
<g style="mix-blend-mode:screen" filter="url(#filter3_f_1_3972)">
<path d="M44.5556 28.2222C42.6983 29.2859 40.0892 34.2828 39 34.5556H50.1111C48.9417 34.5556 45.9027 28.8529 44.5556 28.2222Z" fill="url(#paint4_linear_1_3972)"/>
</g>
<g style="mix-blend-mode:screen" filter="url(#filter4_f_1_3972)">
<path d="M44 29.5556C42.7535 30.2669 40.9532 34.3732 40.2222 34.5556L47.6667 34.3333C46.8818 34.3333 44.9041 29.9773 44 29.5556Z" fill="url(#paint5_linear_1_3972)"/>
</g>
</g>
<defs>
<filter id="filter0_bdi_1_3972" x="0" y="0.555555" width="88.3333" height="81.7778" filterUnits="userSpaceOnUse" color-interpolation-filters="sRGB">
<feFlood flood-opacity="0" result="BackgroundImageFix"/>
<feGaussianBlur in="BackgroundImageFix" stdDeviation="8"/>
<feComposite in2="SourceAlpha" operator="in" result="effect1_backgroundBlur_1_3972"/>
<feColorMatrix in="SourceAlpha" type="matrix" values="0 0 0 0 0 0 0 0 0 0 0 0 0 0 0 0 0 0 127 0" result="hardAlpha"/>
<feOffset dy="16"/>
<feGaussianBlur stdDeviation="16"/>
<feColorMatrix type="matrix" values="0 0 0 0 0 0 0 0 0 0.2015 0 0 0 0 0.3875 0 0 0 0.2 0"/>
<feBlend mode="normal" in2="effect1_backgroundBlur_1_3972" result="effect2_dropShadow_1_3972"/>
<feBlend mode="normal" in="SourceGraphic" in2="effect2_dropShadow_1_3972" result="shape"/>
<feColorMatrix in="SourceAlpha" type="matrix" values="0 0 0 0 0 0 0 0 0 0 0 0 0 0 0 0 0 0 127 0" result="hardAlpha"/>
<feOffset dx="1" dy="2"/>
<feGaussianBlur stdDeviation="7"/>
<feComposite in2="hardAlpha" operator="arithmetic" k2="-1" k3="1"/>
<feColorMatrix type="matrix" values="0 0 0 0 1 0 0 0 0 1 0 0 0 0 1 0 0 0 1 0"/>
<feBlend mode="normal" in2="shape" result="effect3_innerShadow_1_3972"/>
</filter>
<filter id="filter1_di_1_3972" x="24" y="8.33333" width="40" height="38" filterUnits="userSpaceOnUse" color-interpolation-filters="sRGB">
<feFlood flood-opacity="0" result="BackgroundImageFix"/>
<feColorMatrix in="SourceAlpha" type="matrix" values="0 0 0 0 0 0 0 0 0 0 0 0 0 0 0 0 0 0 127 0" result="hardAlpha"/>
<feOffset dx="-2" dy="-10"/>
<feGaussianBlur stdDeviation="3"/>
<feColorMatrix type="matrix" values="0 0 0 0 0 0 0 0 0 0 0 0 0 0 0 0 0 0 0.22 0"/>
<feBlend mode="normal" in2="BackgroundImageFix" result="effect1_dropShadow_1_3972"/>
<feBlend mode="normal" in="SourceGraphic" in2="effect1_dropShadow_1_3972" result="shape"/>
<feColorMatrix in="SourceAlpha" type="matrix" values="0 0 0 0 0 0 0 0 0 0 0 0 0 0 0 0 0 0 127 0" result="hardAlpha"/>
<feOffset dx="22" dy="12"/>
<feGaussianBlur stdDeviation="11"/>
<feComposite in2="hardAlpha" operator="arithmetic" k2="-1" k3="1"/>
<feColorMatrix type="matrix" values="0 0 0 0 1 0 0 0 0 1 0 0 0 0 1 0 0 0 0.74 0"/>
<feBlend mode="normal" in2="shape" result="effect2_innerShadow_1_3972"/>
</filter>
<filter id="filter2_f_1_3972" x="28.5555" y="22.1111" width="31.2222" height="20.2222" filterUnits="userSpaceOnUse" color-interpolation-filters="sRGB">
<feFlood flood-opacity="0" result="BackgroundImageFix"/>
<feBlend mode="normal" in="SourceGraphic" in2="BackgroundImageFix" result="shape"/>
<feGaussianBlur stdDeviation="4" result="effect1_foregroundBlur_1_3972"/>
</filter>
<filter id="filter3_f_1_3972" x="35" y="24.2222" width="19.1111" height="14.3333" filterUnits="userSpaceOnUse" color-interpolation-filters="sRGB">
<feFlood flood-opacity="0" result="BackgroundImageFix"/>
<feBlend mode="normal" in="SourceGraphic" in2="BackgroundImageFix" result="shape"/>
<feGaussianBlur stdDeviation="2" result="effect1_foregroundBlur_1_3972"/>
</filter>
<filter id="filter4_f_1_3972" x="36.2222" y="25.5556" width="15.4445" height="13" filterUnits="userSpaceOnUse" color-interpolation-filters="sRGB">
<feFlood flood-opacity="0" result="BackgroundImageFix"/>
<feBlend mode="normal" in="SourceGraphic" in2="BackgroundImageFix" result="shape"/>
<feGaussianBlur stdDeviation="2" result="effect1_foregroundBlur_1_3972"/>
</filter>
<radialGradient id="paint0_radial_1_3972" cx="0" cy="0" r="1" gradientUnits="userSpaceOnUse" gradientTransform="translate(40.5738 20.346) rotate(90.6693) scale(13.9809 15.9541)">
<stop stop-color="white"/>
<stop offset="1" stop-color="#99CEFF"/>
</radialGradient>
<linearGradient id="paint1_linear_1_3972" x1="44.4519" y1="34.3333" x2="44.4519" y2="40.1111" gradientUnits="userSpaceOnUse">
<stop stop-color="#E2BC38"/>
<stop offset="0.146666" stop-color="#FFE244"/>
</linearGradient>
<radialGradient id="paint2_radial_1_3972" cx="0" cy="0" r="1" gradientUnits="userSpaceOnUse" gradientTransform="translate(40.5738 20.346) rotate(90.6693) scale(13.9809 15.9541)">
<stop stop-color="white"/>
<stop offset="1" stop-color="#2094FF"/>
</radialGradient>
<radialGradient id="paint3_radial_1_3972" cx="0" cy="0" r="1" gradientUnits="userSpaceOnUse" gradientTransform="translate(45.321 33.8651) rotate(-90) scale(2.39326 12.3638)">
<stop stop-color="#FFDE41"/>
<stop offset="1" stop-color="#FFD200" stop-opacity="0"/>
</radialGradient>
<linearGradient id="paint4_linear_1_3972" x1="44.8542" y1="34.432" x2="44.8542" y2="33.6158" gradientUnits="userSpaceOnUse">
<stop stop-color="#FFDE41"/>
<stop offset="1" stop-color="#FFD200" stop-opacity="0"/>
</linearGradient>
<linearGradient id="paint5_linear_1_3972" x1="44.1512" y1="34.4694" x2="44.1512" y2="33.3419" gradientUnits="userSpaceOnUse">
<stop stop-color="#FFDE41"/>
<stop offset="1" stop-color="#FFD200" stop-opacity="0"/>
</linearGradient>
</defs>
</svg>
