<svg width="87" height="81" viewBox="0 0 87 81" fill="none" xmlns="http://www.w3.org/2000/svg">
<g filter="url(#filter0_i_1_3927)">
<circle cx="48.2501" cy="19.5558" r="7.55581" fill="#FFAB0B"/>
</g>
<g filter="url(#filter1_bdi_1_3927)">
<path fill-rule="evenodd" clip-rule="evenodd" d="M36.7612 32.9067C36.7268 32.9075 36.6923 32.9079 36.6577 32.9079C34.0853 32.9079 32 30.8225 32 28.2502C32 26.5045 32.9604 24.9831 34.3816 24.1855C34.3809 24.1432 34.3806 24.1007 34.3806 24.0582C34.3806 19.7995 37.8329 16.3472 42.0916 16.3472C45.7651 16.3472 48.8387 18.9159 49.614 22.3551C52.4248 22.4732 54.6674 24.7893 54.6674 27.6291C54.6674 30.5445 52.304 32.9079 49.3887 32.9079C49.3194 32.9079 49.2504 32.9065 49.1817 32.9039V32.9079H36.7612V32.9067Z" fill="url(#paint0_radial_1_3927)" fill-opacity="0.77"/>
</g>
<g style="mix-blend-mode:soft-light" filter="url(#filter2_di_1_3927)">
<circle cx="36.6577" cy="28.2502" r="4.65769" fill="#848484"/>
</g>
<path d="M42.3126 35.3805C42.4096 35.289 42.5694 35.3468 42.5845 35.4789L42.7069 36.5544C42.7661 37.0733 42.2569 37.4745 41.765 37.2965C41.2731 37.1186 41.1424 36.4859 41.5233 36.1261L42.3126 35.3805Z" fill="#00D0E2"/>
<path d="M45.3142 35.3805C45.4111 35.289 45.571 35.3468 45.586 35.4789L45.7085 36.5544C45.7676 37.0733 45.2584 37.4745 44.7666 37.2965C44.2747 37.1186 44.144 36.4859 44.5249 36.1261L45.3142 35.3805Z" fill="#00D0E2"/>
<path d="M48.5228 35.3805C48.6198 35.289 48.7796 35.3468 48.7947 35.4789L48.9172 36.5544C48.9763 37.0733 48.4671 37.4745 47.9752 37.2965C47.4833 37.1186 47.3526 36.4859 47.7335 36.1261L48.5228 35.3805Z" fill="#00D0E2"/>
<path d="M43.3475 38.6941C43.4443 38.6025 43.6041 38.6606 43.6193 38.7928L43.7428 39.8694C43.8024 40.3888 43.2941 40.7898 42.8024 40.6112C42.3108 40.4326 42.1796 39.7992 42.5597 39.4395L43.3475 38.6941Z" fill="#00D0E2"/>
<path d="M46.3491 38.6941C46.4459 38.6025 46.6057 38.6606 46.6208 38.7928L46.7444 39.8694C46.804 40.3888 46.2956 40.7898 45.804 40.6112C45.3124 40.4326 45.1812 39.7992 45.5613 39.4395L46.3491 38.6941Z" fill="#00D0E2"/>
<defs>
<filter id="filter0_i_1_3927" x="30.6943" y="12" width="25.1116" height="28.1116" filterUnits="userSpaceOnUse" color-interpolation-filters="sRGB">
<feFlood flood-opacity="0" result="BackgroundImageFix"/>
<feBlend mode="normal" in="SourceGraphic" in2="BackgroundImageFix" result="shape"/>
<feColorMatrix in="SourceAlpha" type="matrix" values="0 0 0 0 0 0 0 0 0 0 0 0 0 0 0 0 0 0 127 0" result="hardAlpha"/>
<feOffset dx="-10" dy="13"/>
<feGaussianBlur stdDeviation="12"/>
<feComposite in2="hardAlpha" operator="arithmetic" k2="-1" k3="1"/>
<feColorMatrix type="matrix" values="0 0 0 0 1 0 0 0 0 0.886275 0 0 0 0 0 0 0 0 0.9 0"/>
<feBlend mode="normal" in2="shape" result="effect1_innerShadow_1_3927"/>
</filter>
<filter id="filter1_bdi_1_3927" x="0" y="0.347176" width="86.6674" height="80.5607" filterUnits="userSpaceOnUse" color-interpolation-filters="sRGB">
<feFlood flood-opacity="0" result="BackgroundImageFix"/>
<feGaussianBlur in="BackgroundImageFix" stdDeviation="8"/>
<feComposite in2="SourceAlpha" operator="in" result="effect1_backgroundBlur_1_3927"/>
<feColorMatrix in="SourceAlpha" type="matrix" values="0 0 0 0 0 0 0 0 0 0 0 0 0 0 0 0 0 0 127 0" result="hardAlpha"/>
<feOffset dy="16"/>
<feGaussianBlur stdDeviation="16"/>
<feColorMatrix type="matrix" values="0 0 0 0 0 0 0 0 0 0.2015 0 0 0 0 0.3875 0 0 0 0.2 0"/>
<feBlend mode="normal" in2="effect1_backgroundBlur_1_3927" result="effect2_dropShadow_1_3927"/>
<feBlend mode="normal" in="SourceGraphic" in2="effect2_dropShadow_1_3927" result="shape"/>
<feColorMatrix in="SourceAlpha" type="matrix" values="0 0 0 0 0 0 0 0 0 0 0 0 0 0 0 0 0 0 127 0" result="hardAlpha"/>
<feOffset dx="1" dy="2"/>
<feGaussianBlur stdDeviation="7"/>
<feComposite in2="hardAlpha" operator="arithmetic" k2="-1" k3="1"/>
<feColorMatrix type="matrix" values="0 0 0 0 1 0 0 0 0 1 0 0 0 0 1 0 0 0 1 0"/>
<feBlend mode="normal" in2="shape" result="effect3_innerShadow_1_3927"/>
</filter>
<filter id="filter2_di_1_3927" x="24" y="7.59247" width="39.3154" height="37.3154" filterUnits="userSpaceOnUse" color-interpolation-filters="sRGB">
<feFlood flood-opacity="0" result="BackgroundImageFix"/>
<feColorMatrix in="SourceAlpha" type="matrix" values="0 0 0 0 0 0 0 0 0 0 0 0 0 0 0 0 0 0 127 0" result="hardAlpha"/>
<feOffset dx="-2" dy="-10"/>
<feGaussianBlur stdDeviation="3"/>
<feColorMatrix type="matrix" values="0 0 0 0 0 0 0 0 0 0 0 0 0 0 0 0 0 0 0.22 0"/>
<feBlend mode="normal" in2="BackgroundImageFix" result="effect1_dropShadow_1_3927"/>
<feBlend mode="normal" in="SourceGraphic" in2="effect1_dropShadow_1_3927" result="shape"/>
<feColorMatrix in="SourceAlpha" type="matrix" values="0 0 0 0 0 0 0 0 0 0 0 0 0 0 0 0 0 0 127 0" result="hardAlpha"/>
<feOffset dx="22" dy="12"/>
<feGaussianBlur stdDeviation="11"/>
<feComposite in2="hardAlpha" operator="arithmetic" k2="-1" k3="1"/>
<feColorMatrix type="matrix" values="0 0 0 0 1 0 0 0 0 1 0 0 0 0 1 0 0 0 0.74 0"/>
<feBlend mode="normal" in2="shape" result="effect2_innerShadow_1_3927"/>
</filter>
<radialGradient id="paint0_radial_1_3927" cx="0" cy="0" r="1" gradientUnits="userSpaceOnUse" gradientTransform="translate(39.9868 19.8782) rotate(90.6693) scale(13.0238 14.8619)">
<stop stop-color="white"/>
<stop offset="1" stop-color="#2094FF"/>
</radialGradient>
</defs>
</svg>
