<svg width="16" height="20" viewBox="0 0 16 20" fill="none" xmlns="http://www.w3.org/2000/svg">
<path d="M8 10C8.98891 10 9.95561 9.70676 10.7779 9.15735C11.6001 8.60794 12.241 7.82705 12.6194 6.91342C12.9978 5.99979 13.0969 4.99446 12.9039 4.02455C12.711 3.05465 12.2348 2.16373 11.5355 1.46447C10.8363 0.765206 9.94536 0.289002 8.97545 0.0960759C8.00555 -0.0968503 7.00021 0.00216642 6.08658 0.380605C5.17295 0.759043 4.39206 1.39991 3.84265 2.22215C3.29324 3.0444 3 4.0111 3 5C3.00156 6.32561 3.52884 7.59647 4.46618 8.53382C5.40353 9.47116 6.6744 9.99845 8 10ZM8 2C8.59334 2 9.17336 2.17595 9.66671 2.50559C10.1601 2.83524 10.5446 3.30377 10.7716 3.85195C10.9987 4.40013 11.0581 5.00333 10.9424 5.58527C10.8266 6.16722 10.5409 6.70177 10.1213 7.12132C9.70176 7.54088 9.16721 7.8266 8.58527 7.94236C8.00333 8.05811 7.40013 7.9987 6.85195 7.77164C6.30377 7.54458 5.83524 7.16006 5.50559 6.66671C5.17595 6.17337 5 5.59335 5 5C5.00087 4.20462 5.31722 3.44206 5.87964 2.87964C6.44206 2.31722 7.20462 2.00087 8 2ZM10.2324 12H5.76758C4.23844 12.0017 2.7724 12.6099 1.69113 13.6911C0.60986 14.7724 0.00167022 16.2384 0 17.7676V19C0 19.2652 0.105357 19.5196 0.292893 19.7071C0.48043 19.8946 0.734784 20 1 20C1.26522 20 1.51957 19.8946 1.70711 19.7071C1.89464 19.5196 2 19.2652 2 19V17.7676C2.00115 16.7687 2.39846 15.8111 3.10477 15.1048C3.81108 14.3985 4.76871 14.0012 5.76758 14H10.2324C11.2313 14.0012 12.1888 14.3986 12.8951 15.1049C13.6014 15.8112 13.9988 16.7687 14 17.7676V19C14 19.2652 14.1054 19.5196 14.2929 19.7071C14.4804 19.8946 14.7348 20 15 20C15.2652 20 15.5196 19.8946 15.7071 19.7071C15.8946 19.5196 16 19.2652 16 19V17.7676C15.9984 16.2384 15.3902 14.7723 14.309 13.691C13.2277 12.6098 11.7616 12.0016 10.2324 12Z" fill="#2E3A5A"/>
</svg>
