<svg width="91" height="84" viewBox="0 0 91 84" fill="none" xmlns="http://www.w3.org/2000/svg">
<g filter="url(#filter0_bdi_1_3951)">
<path fill-rule="evenodd" clip-rule="evenodd" d="M52.455 35.4809H37.6008V35.4796C37.5603 35.4805 37.5197 35.4809 37.479 35.4809C34.453 35.4809 32 33.0279 32 30.0019C32 27.9484 33.1297 26.1587 34.8016 25.2205C34.8008 25.1707 34.8004 25.1208 34.8004 25.0708C34.8004 20.0611 38.8615 16 43.8712 16C48.1924 16 51.8079 19.0217 52.72 23.0674C56.0265 23.2062 58.6645 25.9307 58.6645 29.2714C58.6645 32.5782 56.0796 35.2813 52.8202 35.4703V35.4809H52.455Z" fill="url(#paint0_radial_1_3951)" fill-opacity="0.77"/>
</g>
<g style="mix-blend-mode:soft-light" filter="url(#filter1_di_1_3951)">
<circle cx="37.479" cy="30.0019" r="5.47901" fill="#848484"/>
</g>
<path d="M41.8708 38.3896C41.9848 38.2819 42.1729 38.3499 42.1906 38.5053L42.3347 39.7704C42.4042 40.3809 41.8052 40.8528 41.2266 40.6434C40.648 40.4341 40.4943 39.6899 40.9423 39.2667L41.8708 38.3896Z" fill="#00D0E2"/>
<path d="M45.4017 38.3896C45.5157 38.2819 45.7038 38.3499 45.7215 38.5053L45.8656 39.7704C45.9351 40.3809 45.3361 40.8528 44.7575 40.6434C44.1788 40.4341 44.0252 39.6899 44.4732 39.2667L45.4017 38.3896Z" fill="#00D0E2"/>
<path d="M49.1761 38.3896C49.2901 38.2819 49.4782 38.3499 49.4959 38.5053L49.64 39.7704C49.7095 40.3809 49.1105 40.8528 48.5319 40.6434C47.9533 40.4341 47.7996 39.6899 48.2476 39.2667L49.1761 38.3896Z" fill="#00D0E2"/>
<path d="M43.0882 42.2875C43.2021 42.1798 43.39 42.2481 43.4078 42.4036L43.5531 43.67C43.6233 44.2811 43.0253 44.7528 42.447 44.5426C41.8686 44.3325 41.7143 43.5875 42.1615 43.1644L43.0882 42.2875Z" fill="#00D0E2"/>
<path d="M46.6191 42.2875C46.7329 42.1798 46.9209 42.2481 46.9387 42.4036L47.084 43.67C47.1541 44.2811 46.5562 44.7528 45.9778 44.5426C45.3995 44.3325 45.2452 43.5875 45.6923 43.1644L46.6191 42.2875Z" fill="#00D0E2"/>
<defs>
<filter id="filter0_bdi_1_3951" x="0" y="0" width="90.6646" height="83.4809" filterUnits="userSpaceOnUse" color-interpolation-filters="sRGB">
<feFlood flood-opacity="0" result="BackgroundImageFix"/>
<feGaussianBlur in="BackgroundImageFix" stdDeviation="8"/>
<feComposite in2="SourceAlpha" operator="in" result="effect1_backgroundBlur_1_3951"/>
<feColorMatrix in="SourceAlpha" type="matrix" values="0 0 0 0 0 0 0 0 0 0 0 0 0 0 0 0 0 0 127 0" result="hardAlpha"/>
<feOffset dy="16"/>
<feGaussianBlur stdDeviation="16"/>
<feColorMatrix type="matrix" values="0 0 0 0 0 0 0 0 0 0.2015 0 0 0 0 0.3875 0 0 0 0.2 0"/>
<feBlend mode="normal" in2="effect1_backgroundBlur_1_3951" result="effect2_dropShadow_1_3951"/>
<feBlend mode="normal" in="SourceGraphic" in2="effect2_dropShadow_1_3951" result="shape"/>
<feColorMatrix in="SourceAlpha" type="matrix" values="0 0 0 0 0 0 0 0 0 0 0 0 0 0 0 0 0 0 127 0" result="hardAlpha"/>
<feOffset dx="1" dy="2"/>
<feGaussianBlur stdDeviation="7"/>
<feComposite in2="hardAlpha" operator="arithmetic" k2="-1" k3="1"/>
<feColorMatrix type="matrix" values="0 0 0 0 1 0 0 0 0 1 0 0 0 0 1 0 0 0 1 0"/>
<feBlend mode="normal" in2="shape" result="effect3_innerShadow_1_3951"/>
</filter>
<filter id="filter1_di_1_3951" x="24" y="8.5229" width="40.958" height="38.958" filterUnits="userSpaceOnUse" color-interpolation-filters="sRGB">
<feFlood flood-opacity="0" result="BackgroundImageFix"/>
<feColorMatrix in="SourceAlpha" type="matrix" values="0 0 0 0 0 0 0 0 0 0 0 0 0 0 0 0 0 0 127 0" result="hardAlpha"/>
<feOffset dx="-2" dy="-10"/>
<feGaussianBlur stdDeviation="3"/>
<feColorMatrix type="matrix" values="0 0 0 0 0 0 0 0 0 0 0 0 0 0 0 0 0 0 0.22 0"/>
<feBlend mode="normal" in2="BackgroundImageFix" result="effect1_dropShadow_1_3951"/>
<feBlend mode="normal" in="SourceGraphic" in2="effect1_dropShadow_1_3951" result="shape"/>
<feColorMatrix in="SourceAlpha" type="matrix" values="0 0 0 0 0 0 0 0 0 0 0 0 0 0 0 0 0 0 127 0" result="hardAlpha"/>
<feOffset dx="22" dy="12"/>
<feGaussianBlur stdDeviation="11"/>
<feComposite in2="hardAlpha" operator="arithmetic" k2="-1" k3="1"/>
<feColorMatrix type="matrix" values="0 0 0 0 1 0 0 0 0 1 0 0 0 0 1 0 0 0 0.74 0"/>
<feBlend mode="normal" in2="shape" result="effect2_innerShadow_1_3951"/>
</filter>
<radialGradient id="paint0_radial_1_3951" cx="0" cy="0" r="1" gradientUnits="userSpaceOnUse" gradientTransform="translate(41.3952 20.1536) rotate(90.6693) scale(15.3203 17.4826)">
<stop offset="0.07" stop-color="white"/>
<stop offset="1" stop-color="#2094FF"/>
</radialGradient>
</defs>
</svg>
