<svg width="16" height="16" viewBox="0 0 16 16" fill="none" xmlns="http://www.w3.org/2000/svg">
<path d="M15.3217 13.7612L11.2752 9.71464C12.215 8.50504 12.6584 6.98273 12.5151 5.45767C12.3719 3.93262 11.6527 2.5195 10.5041 1.50607C9.35555 0.492636 7.86387 -0.0449032 6.33285 0.00290559C4.80182 0.0507143 3.34659 0.680276 2.26346 1.7634C1.18033 2.84652 0.550757 4.30175 0.502937 5.83277C0.455118 7.3638 0.992647 8.85548 2.00607 10.0041C3.01949 11.1527 4.43261 11.8718 5.95766 12.0151C7.48272 12.1584 9.00504 11.715 10.2146 10.7752L14.2612 14.8218C14.402 14.9616 14.5925 15.0399 14.791 15.0396C14.9894 15.0393 15.1797 14.9603 15.32 14.8199C15.4603 14.6796 15.5393 14.4894 15.5396 14.2909C15.5399 14.0925 15.4616 13.902 15.3217 13.7612V13.7612ZM2.04148 6.04146C2.04148 5.15144 2.3054 4.28141 2.79986 3.54139C3.29433 2.80137 3.99713 2.22459 4.8194 1.884C5.64167 1.5434 6.54647 1.45429 7.41938 1.62792C8.2923 1.80156 9.09412 2.23014 9.72346 2.85948C10.3528 3.48881 10.7814 4.29064 10.955 5.16355C11.1286 6.03646 11.0395 6.94126 10.6989 7.76353C10.3583 8.5858 9.78156 9.2886 9.04154 9.78307C8.30152 10.2775 7.43149 10.5415 6.54148 10.5415C5.3484 10.5402 4.20457 10.0656 3.36093 9.222C2.5173 8.37837 2.04278 7.23453 2.04148 6.04146V6.04146Z" fill="#8C939D"/>
</svg>
