<svg width="120" height="105" viewBox="0 0 120 105" fill="none" xmlns="http://www.w3.org/2000/svg">
<g filter="url(#filter0_i_1_3878)">
<circle cx="71.8227" cy="24.2345" r="18.1095" fill="#FFAB0B"/>
</g>
<g filter="url(#filter1_bdi_1_3878)">
<path fill-rule="evenodd" clip-rule="evenodd" d="M44.2864 56.2334C44.204 56.2352 44.1213 56.2361 44.0384 56.2361C37.873 56.2361 32.875 51.2381 32.875 45.0727C32.875 40.8887 35.1768 37.2423 38.5831 35.3308C38.5815 35.2293 38.5807 35.1276 38.5807 35.0257C38.5807 24.8186 46.8552 16.5441 57.0623 16.5441C65.8667 16.5441 73.2332 22.7008 75.0915 30.9438C81.8285 31.2267 87.2033 36.7778 87.2033 43.5843C87.2033 50.5717 81.5389 56.2361 74.5515 56.2361C74.3854 56.2361 74.22 56.2329 74.0554 56.2266V56.2361H44.2864V56.2334Z" fill="url(#paint0_radial_1_3878)" fill-opacity="0.77"/>
</g>
<g style="mix-blend-mode:soft-light" filter="url(#filter2_di_1_3878)">
<circle cx="44.0384" cy="45.0727" r="11.1634" fill="#848484"/>
</g>
<path d="M57.592 62.1626C57.8244 61.9431 58.2075 62.0817 58.2436 62.3983L58.5372 64.9759C58.6788 66.2197 57.4584 67.1812 56.2794 66.7547C55.1005 66.3282 54.7874 64.8118 55.7002 63.9496L57.592 62.1626Z" fill="#00D0E2"/>
<path d="M64.7861 62.1626C65.0185 61.9431 65.4016 62.0817 65.4376 62.3983L65.7312 64.9759C65.8729 66.2197 64.6525 67.1812 63.4735 66.7547C62.2946 66.3282 61.9815 64.8118 62.8943 63.9496L64.7861 62.1626Z" fill="#00D0E2"/>
<path d="M72.4765 62.1626C72.7089 61.9431 73.092 62.0817 73.1281 62.3983L73.4217 64.9759C73.5633 66.2197 72.3429 67.1812 71.164 66.7547C69.985 66.3282 69.6719 64.8118 70.5847 63.9496L72.4765 62.1626Z" fill="#00D0E2"/>
<path d="M60.0725 70.1044C60.3044 69.8849 60.6874 70.024 60.7237 70.341L61.0198 72.9212C61.1627 74.1662 59.9443 75.1273 58.766 74.6992C57.5876 74.271 57.2732 72.753 58.1842 71.891L60.0725 70.1044Z" fill="#00D0E2"/>
<path d="M67.2667 70.1044C67.4987 69.8849 67.8816 70.024 67.9179 70.341L68.214 72.9212C68.3569 74.1662 67.1385 75.1273 65.9602 74.6992C64.7818 74.271 64.4674 72.753 65.3785 71.891L67.2667 70.1044Z" fill="#00D0E2"/>
<defs>
<filter id="filter0_i_1_3878" x="43.7133" y="6.125" width="46.2189" height="49.2189" filterUnits="userSpaceOnUse" color-interpolation-filters="sRGB">
<feFlood flood-opacity="0" result="BackgroundImageFix"/>
<feBlend mode="normal" in="SourceGraphic" in2="BackgroundImageFix" result="shape"/>
<feColorMatrix in="SourceAlpha" type="matrix" values="0 0 0 0 0 0 0 0 0 0 0 0 0 0 0 0 0 0 127 0" result="hardAlpha"/>
<feOffset dx="-10" dy="13"/>
<feGaussianBlur stdDeviation="12"/>
<feComposite in2="hardAlpha" operator="arithmetic" k2="-1" k3="1"/>
<feColorMatrix type="matrix" values="0 0 0 0 1 0 0 0 0 0.886275 0 0 0 0 0 0 0 0 0.9 0"/>
<feBlend mode="normal" in2="shape" result="effect1_innerShadow_1_3878"/>
</filter>
<filter id="filter1_bdi_1_3878" x="0.875" y="0.544128" width="118.328" height="103.692" filterUnits="userSpaceOnUse" color-interpolation-filters="sRGB">
<feFlood flood-opacity="0" result="BackgroundImageFix"/>
<feGaussianBlur in="BackgroundImageFix" stdDeviation="8"/>
<feComposite in2="SourceAlpha" operator="in" result="effect1_backgroundBlur_1_3878"/>
<feColorMatrix in="SourceAlpha" type="matrix" values="0 0 0 0 0 0 0 0 0 0 0 0 0 0 0 0 0 0 127 0" result="hardAlpha"/>
<feOffset dy="16"/>
<feGaussianBlur stdDeviation="16"/>
<feColorMatrix type="matrix" values="0 0 0 0 0 0 0 0 0 0.2015 0 0 0 0 0.3875 0 0 0 0.2 0"/>
<feBlend mode="normal" in2="effect1_backgroundBlur_1_3878" result="effect2_dropShadow_1_3878"/>
<feBlend mode="normal" in="SourceGraphic" in2="effect2_dropShadow_1_3878" result="shape"/>
<feColorMatrix in="SourceAlpha" type="matrix" values="0 0 0 0 0 0 0 0 0 0 0 0 0 0 0 0 0 0 127 0" result="hardAlpha"/>
<feOffset dx="1" dy="2"/>
<feGaussianBlur stdDeviation="7"/>
<feComposite in2="hardAlpha" operator="arithmetic" k2="-1" k3="1"/>
<feColorMatrix type="matrix" values="0 0 0 0 1 0 0 0 0 1 0 0 0 0 1 0 0 0 1 0"/>
<feBlend mode="normal" in2="shape" result="effect3_innerShadow_1_3878"/>
</filter>
<filter id="filter2_di_1_3878" x="24.875" y="17.9094" width="52.3268" height="50.3267" filterUnits="userSpaceOnUse" color-interpolation-filters="sRGB">
<feFlood flood-opacity="0" result="BackgroundImageFix"/>
<feColorMatrix in="SourceAlpha" type="matrix" values="0 0 0 0 0 0 0 0 0 0 0 0 0 0 0 0 0 0 127 0" result="hardAlpha"/>
<feOffset dx="-2" dy="-10"/>
<feGaussianBlur stdDeviation="3"/>
<feColorMatrix type="matrix" values="0 0 0 0 0 0 0 0 0 0 0 0 0 0 0 0 0 0 0.22 0"/>
<feBlend mode="normal" in2="BackgroundImageFix" result="effect1_dropShadow_1_3878"/>
<feBlend mode="normal" in="SourceGraphic" in2="effect1_dropShadow_1_3878" result="shape"/>
<feColorMatrix in="SourceAlpha" type="matrix" values="0 0 0 0 0 0 0 0 0 0 0 0 0 0 0 0 0 0 127 0" result="hardAlpha"/>
<feOffset dx="22" dy="12"/>
<feGaussianBlur stdDeviation="11"/>
<feComposite in2="hardAlpha" operator="arithmetic" k2="-1" k3="1"/>
<feColorMatrix type="matrix" values="0 0 0 0 1 0 0 0 0 1 0 0 0 0 1 0 0 0 0.74 0"/>
<feBlend mode="normal" in2="shape" result="effect2_innerShadow_1_3878"/>
</filter>
<radialGradient id="paint0_radial_1_3878" cx="0" cy="0" r="1" gradientUnits="userSpaceOnUse" gradientTransform="translate(52.0176 25.0071) rotate(90.6693) scale(31.2149 35.6204)">
<stop stop-color="white"/>
<stop offset="1" stop-color="#99CEFF"/>
</radialGradient>
</defs>
</svg>
